<svg xmlns="http://www.w3.org/2000/svg" xmlns:xlink="http://www.w3.org/1999/xlink" viewBox="0 0 914.12 603.67"><defs><style>.cls-1{fill:none;}.cls-2{clip-path:url(#clip-path);}.cls-3{fill:#d0d9ca;}</style><clipPath id="clip-path" transform="translate(0 0)"><rect class="cls-1" width="914.13" height="603.67"/></clipPath></defs><title>Artwork 3</title><g id="Layer_2" data-name="Layer 2"><g id="Flour"><g id="Artwork_3" data-name="Artwork 3"><g class="cls-2"><rect class="cls-3" x="535.97" y="303.88" width="71.89" height="71.88"/><rect class="cls-3" x="459.4" y="227.91" width="71.88" height="71.88"/><rect class="cls-3" x="459.4" y="303.88" width="71.88" height="71.88"/><rect class="cls-3" x="459.4" y="75.97" width="71.88" height="71.88"/><rect class="cls-3" x="535.97" y="379.85" width="71.89" height="71.88"/><rect class="cls-3" x="535.97" y="455.82" width="71.89" height="71.88"/><rect class="cls-3" x="459.4" width="71.88" height="71.88"/><rect class="cls-3" x="459.4" y="379.85" width="71.88" height="71.88"/><rect class="cls-3" x="535.97" y="531.79" width="71.89" height="71.88"/><rect class="cls-3" x="459.4" y="151.94" width="71.88" height="71.88"/><rect class="cls-3" x="459.4" y="455.82" width="71.88" height="71.88"/><rect class="cls-3" x="382.84" y="379.85" width="71.88" height="71.88"/><rect class="cls-3" x="382.84" y="303.88" width="71.88" height="71.88"/><rect class="cls-3" x="382.84" y="455.82" width="71.88" height="71.88"/><rect class="cls-3" x="689.11" width="71.88" height="71.88"/><rect class="cls-3" x="382.84" y="227.91" width="71.88" height="71.88"/><rect class="cls-3" x="382.84" y="151.94" width="71.88" height="71.88"/><rect class="cls-3" x="382.84" width="71.88" height="71.88"/><rect class="cls-3" x="459.4" y="531.79" width="71.88" height="71.88"/><rect class="cls-3" x="382.84" y="75.97" width="71.88" height="71.88"/><rect class="cls-3" x="612.54" width="71.88" height="71.88"/><rect class="cls-3" x="535.97" y="227.91" width="71.89" height="71.88"/><rect class="cls-3" x="689.11" y="379.85" width="71.88" height="71.88"/><rect class="cls-3" x="612.54" y="75.97" width="71.88" height="71.88"/><rect class="cls-3" x="306.27" width="71.88" height="71.88"/><rect class="cls-3" x="689.11" y="531.79" width="71.88" height="71.88"/><rect class="cls-3" x="689.11" y="75.97" width="71.88" height="71.88"/><rect class="cls-3" x="689.11" y="151.94" width="71.88" height="71.88"/><rect class="cls-3" x="689.11" y="227.91" width="71.88" height="71.88"/><rect class="cls-3" x="689.11" y="303.88" width="71.88" height="71.88"/><rect class="cls-3" x="689.11" y="455.82" width="71.88" height="71.88"/><rect class="cls-3" x="612.54" y="531.79" width="71.88" height="71.88"/><rect class="cls-3" x="535.97" width="71.89" height="71.88"/><rect class="cls-3" x="535.97" y="75.97" width="71.89" height="71.88"/><rect class="cls-3" x="535.97" y="151.94" width="71.89" height="71.88"/><rect class="cls-3" x="612.54" y="151.94" width="71.88" height="71.88"/><rect class="cls-3" x="612.54" y="303.88" width="71.88" height="71.88"/><rect class="cls-3" x="612.54" y="227.91" width="71.88" height="71.88"/><rect class="cls-3" x="612.54" y="455.82" width="71.88" height="71.88"/><rect class="cls-3" x="612.54" y="379.85" width="71.88" height="71.88"/><rect class="cls-3" x="382.84" y="531.79" width="71.88" height="71.88"/><rect class="cls-3" x="76.57" y="227.91" width="71.88" height="71.88"/><rect class="cls-3" x="76.57" y="303.88" width="71.88" height="71.88"/><rect class="cls-3" x="76.57" y="151.94" width="71.88" height="71.88"/><rect class="cls-3" x="76.57" y="455.82" width="71.88" height="71.88"/><rect class="cls-3" x="76.57" y="379.85" width="71.88" height="71.88"/><rect class="cls-3" x="153.14" y="455.82" width="71.88" height="71.88"/><rect class="cls-3" x="153.14" y="531.79" width="71.88" height="71.88"/><rect class="cls-3" x="76.57" width="71.88" height="71.88"/><rect class="cls-3" x="76.57" y="75.97" width="71.88" height="71.88"/><rect class="cls-3" y="75.97" width="71.88" height="71.88"/><rect class="cls-3" y="455.82" width="71.88" height="71.88"/><rect class="cls-3" y="303.88" width="71.88" height="71.88"/><rect class="cls-3" x="76.57" y="531.79" width="71.88" height="71.88"/><rect class="cls-3" y="531.79" width="71.88" height="71.88"/><rect class="cls-3" y="379.85" width="71.88" height="71.88"/><rect class="cls-3" x="153.14" y="379.85" width="71.88" height="71.88"/><rect class="cls-3" width="71.88" height="71.88"/><rect class="cls-3" y="151.94" width="71.88" height="71.88"/><rect class="cls-3" y="227.91" width="71.88" height="71.88"/><rect class="cls-3" x="306.27" y="303.88" width="71.88" height="71.88"/><rect class="cls-3" x="229.7" width="71.88" height="71.88"/><rect class="cls-3" x="306.27" y="531.79" width="71.88" height="71.88"/><rect class="cls-3" x="306.27" y="455.82" width="71.88" height="71.88"/><rect class="cls-3" x="229.7" y="75.97" width="71.88" height="71.88"/><rect class="cls-3" x="306.27" y="75.97" width="71.88" height="71.88"/><rect class="cls-3" x="306.27" y="151.94" width="71.88" height="71.88"/><rect class="cls-3" x="306.27" y="379.85" width="71.88" height="71.88"/><rect class="cls-3" x="306.27" y="227.91" width="71.88" height="71.88"/><rect class="cls-3" x="229.7" y="151.94" width="71.88" height="71.88"/><rect class="cls-3" x="229.7" y="303.88" width="71.88" height="71.88"/><rect class="cls-3" x="153.14" y="151.94" width="71.88" height="71.88"/><rect class="cls-3" x="153.14" y="75.97" width="71.88" height="71.88"/><rect class="cls-3" x="153.14" width="71.88" height="71.88"/><rect class="cls-3" x="229.7" y="227.91" width="71.88" height="71.88"/><rect class="cls-3" x="153.14" y="227.91" width="71.88" height="71.88"/><rect class="cls-3" x="153.14" y="303.88" width="71.88" height="71.88"/><rect class="cls-3" x="229.7" y="379.85" width="71.88" height="71.88"/><rect class="cls-3" x="229.7" y="531.79" width="71.88" height="71.88"/><rect class="cls-3" x="229.7" y="455.82" width="71.88" height="71.88"/><rect class="cls-3" x="765.68" y="531.79" width="71.88" height="71.88"/><rect class="cls-3" x="842.24" y="151.94" width="71.88" height="71.88"/><rect class="cls-3" x="842.24" y="227.91" width="71.88" height="71.88"/><rect class="cls-3" x="842.24" y="75.97" width="71.88" height="71.88"/><rect class="cls-3" x="842.24" y="303.88" width="71.88" height="71.88"/><rect class="cls-3" x="842.24" width="71.88" height="71.88"/><rect class="cls-3" x="842.24" y="379.85" width="71.88" height="71.88"/><rect class="cls-3" x="842.24" y="455.82" width="71.88" height="71.88"/><rect class="cls-3" x="765.68" y="227.91" width="71.88" height="71.88"/><rect class="cls-3" x="765.68" y="303.88" width="71.88" height="71.88"/><rect class="cls-3" x="765.68" y="455.82" width="71.88" height="71.88"/><rect class="cls-3" x="765.68" y="379.85" width="71.88" height="71.88"/><rect class="cls-3" x="842.24" y="531.79" width="71.88" height="71.88"/><rect class="cls-3" x="765.68" y="151.94" width="71.88" height="71.88"/><rect class="cls-3" x="765.68" width="71.88" height="71.88"/><rect class="cls-3" x="765.68" y="75.97" width="71.88" height="71.88"/></g></g></g></g></svg>