<svg xmlns="http://www.w3.org/2000/svg" xmlns:xlink="http://www.w3.org/1999/xlink" viewBox="0 0 415.23 292.93"><defs><style>.cls-1{fill:none;}.cls-2{clip-path:url(#clip-path);}.cls-3{fill:#adbca6;}.cls-4{fill:#e2e3e4;}.cls-5{fill:#7a7c7e;}.cls-6{fill:#efefef;}.cls-7{fill:#abadb0;}.cls-8{fill:#f9f9f9;}.cls-9{fill:#f2f2f2;}.cls-10{fill:#fff;}</style><clipPath id="clip-path" transform="translate(0 0)"><rect class="cls-1" width="415.23" height="292.93"/></clipPath></defs><title>Artwork 2</title><g id="Layer_2" data-name="Layer 2"><g id="Flour"><g id="Artwork_2" data-name="Artwork 2"><g class="cls-2"><g class="cls-2"><path class="cls-3" d="M356.82,134.2c-1.15-2.61-7.08-17.23-8.55-44.62-1.63-30.37,3-80,3-80H334.13s5.55,47.91,3.65,80c-1.7,28.7-6.31,42.08-7.28,44.62-33.23,6.92-58.39,39.5-58.39,78.67,0,44.21,32,80,71.56,80s71.56-35.84,71.56-80c0-39.18-25.17-71.77-58.41-78.68" transform="translate(0 0)"/><path class="cls-3" d="M215.59,109.35c-.95-2.09-5.81-13.79-7-35.72-1.33-24.31,2.49-64.09,2.49-64.09H197s4.56,38.35,3,64.09c-1.39,23-5.18,33.69-6,35.72-27.26,5.54-47.9,31.62-47.9,63,0,35.4,26.29,64.09,58.72,64.09s58.72-28.69,58.72-64.09c0-31.37-20.66-57.46-47.93-63" transform="translate(0 0)"/><path class="cls-3" d="M93.61,85.33c-.72-1.59-4.4-10.48-5.32-27.12-1-18.46,1.89-48.67,1.89-48.67H79.51S83,38.67,81.78,58.21c-1.06,17.45-3.92,25.58-4.53,27.13-20.66,4.21-36.3,24-36.3,47.83,0,26.88,19.92,48.67,44.5,48.67s44.5-21.79,44.5-48.67c0-23.82-15.65-43.63-36.32-47.83" transform="translate(0 0)"/><rect class="cls-3" x="3.82" y="5.72" width="410.29" height="11.45"/><rect class="cls-4" y="9.54" width="410.29" height="11.45"/><path class="cls-5" d="M202.44,14.79A3.82,3.82,0,1,1,198.63,11a3.82,3.82,0,0,1,3.82,3.82" transform="translate(0 0)"/><path class="cls-6" d="M338.73,94.46c1.63,31.49,8.76,46.75,8.76,46.75H320.77s5.56-13.42,7.46-46.75-3.65-83-3.65-83S323.94,0,333,0s8.76,11.45,8.76,11.45-4.66,51.52-3,83" transform="translate(0 0)"/><path class="cls-7" d="M337.3,13.84A3.82,3.82,0,1,1,333.48,10a3.82,3.82,0,0,1,3.82,3.82" transform="translate(0 0)"/><path class="cls-4" d="M405.69,214.21c0,41.37-32,74.9-71.56,74.9s-71.56-33.53-71.56-74.9,32-74.9,71.56-74.9,71.56,33.53,71.56,74.9" transform="translate(0 0)"/><path class="cls-8" d="M387.59,214.21c0,30.91-23.94,56-53.47,56s-53.47-25.06-53.47-56,23.94-56,53.47-56,53.47,25.06,53.47,56" transform="translate(0 0)"/><path class="cls-6" d="M200.06,83c1.34,25.84,7.19,38.36,7.19,38.36H185.33s4.56-11,6.12-38.36-3-68.11-3-68.11S187,1.54,195.29,1.56s7.27,13.36,7.27,13.36S198.73,57.2,200.06,83" transform="translate(0 0)"/><path class="cls-4" d="M255,173.18c0,33.65-26.29,60.93-58.72,60.93s-58.72-27.28-58.72-60.93,26.29-60.93,58.72-60.93S255,139.53,255,173.18" transform="translate(0 0)"/><path class="cls-8" d="M240.16,173.18c0,25.14-19.64,45.52-43.87,45.52s-43.87-20.38-43.87-45.52,19.64-45.52,43.87-45.52,43.87,20.38,43.87,45.52" transform="translate(0 0)"/><path class="cls-7" d="M199.26,13.84a3.34,3.34,0,1,1-3.34-3.34,3.34,3.34,0,0,1,3.34,3.34" transform="translate(0 0)"/><path class="cls-6" d="M81,66.16c1,19.58,5.44,29.07,5.44,29.07H69.85s3.46-8.34,4.64-29.07-2.27-51.62-2.27-51.62S70.06,3.09,77.38,3.09,82.9,14.54,82.9,14.54,80,46.58,81,66.16" transform="translate(0 0)"/><path class="cls-4" d="M122.56,133c0,25.48-19.92,46.14-44.5,46.14S33.57,158.49,33.57,133s19.92-46.13,44.5-46.13,44.5,20.65,44.5,46.13" transform="translate(0 0)"/><path class="cls-8" d="M111.31,133c0,19-14.89,34.47-33.25,34.47S44.82,152.05,44.82,133,59.7,98.55,78.06,98.55,111.31,114,111.31,133" transform="translate(0 0)"/><path class="cls-7" d="M80.54,13.84a2.7,2.7,0,1,1-2.7-2.7,2.7,2.7,0,0,1,2.7,2.7" transform="translate(0 0)"/><path class="cls-6" d="M315.51,153.94s-46.44,12.72-46.44,59.16S306.6,271,306.6,271s-31.8-18.45-31.8-58.52,40.71-58.52,40.71-58.52" transform="translate(0 0)"/><path class="cls-6" d="M178.75,125.95S145,133.22,145,171.8s31.17,48.3,31.17,48.3-26.41-15.53-26.41-48.82,29-45.32,29-45.32" transform="translate(0 0)"/><path class="cls-9" d="M61.06,97.33s-21.63,9-21.63,33.27,16.3,32.27,16.3,32.27a45.36,45.36,0,0,1-13.31-32.61c0-21,18.63-32.94,18.63-32.94" transform="translate(0 0)"/><path class="cls-10" d="M327.6,25.44s4.45,42,3.82,59.16-7,52.8-7,52.8h8.91l1.27-52.8Z" transform="translate(0 0)"/><path class="cls-10" d="M190.83,22.9s2.55,31.81,2.55,42.62-3.18,45.16-3.18,45.16h7l-1.91-45.16Z" transform="translate(0 0)"/><path class="cls-10" d="M74.43,21.63S76,38.17,75.7,50.57s-2.22,35.62-2.22,35.62l5.41-.32L77,50.57Z" transform="translate(0 0)"/><path class="cls-6" d="M351.13,167s31.49,19.08,31.49,48.66-42,47.71-42,47.71,32.44-16.22,32.44-47.71S351.13,167,351.13,167" transform="translate(0 0)"/><path class="cls-6" d="M213.26,135.49s24.33,14.75,24.33,37.6S205.15,210,205.15,210s25.07-12.53,25.07-36.86a50.05,50.05,0,0,0-17-37.6" transform="translate(0 0)"/><path class="cls-6" d="M88.5,103s19.32,11.71,19.32,29.86-25.76,29.28-25.76,29.28,19.91-10,19.91-29.28A39.75,39.75,0,0,0,88.5,103" transform="translate(0 0)"/></g></g></g></g></g></svg>