<svg xmlns="http://www.w3.org/2000/svg" xmlns:xlink="http://www.w3.org/1999/xlink" viewBox="0 0 183.2 155.04"><defs><style>.cls-1{fill:none;}.cls-2{clip-path:url(#clip-path);}.cls-3{fill:#b29674;}.cls-4{fill:#f2c6a2;}.cls-5{fill:#e3bb95;}.cls-6{fill:#efefef;}.cls-7{fill:#3f3f3f;}.cls-8{fill:#f7d1b5;}.cls-9{fill:#666;}</style><clipPath id="clip-path" transform="translate(0 0)"><rect class="cls-1" width="183.2" height="155.04"/></clipPath></defs><title>Artwork 1</title><g id="Layer_2" data-name="Layer 2"><g id="Flour"><g id="Artwork_1" data-name="Artwork 1"><g class="cls-2"><polygon class="cls-3" points="0 150.27 111.64 155.04 114.33 150.27 171.75 151.22 183.2 141.68 119.72 140.74 124.04 133.1 24.81 131.19 0 150.27"/><polygon class="cls-4" points="25.76 146.14 13.36 131.19 89.69 52.95 131.68 98.75 106.87 119.74 106.87 146.45 25.76 146.14"/><polygon class="cls-5" points="131.68 98.75 106.87 119.74 106.87 146.45 113.55 143.11 113.86 120.05 134.85 101.92 131.68 98.75"/><polygon class="cls-6" points="94.7 58.19 105.67 47.92 112.22 56.22 107 60.87 113.12 70.07 109.01 73.82 94.7 58.19"/><g class="cls-2"><path class="cls-7" d="M105.67,47.92l42.1-40.34S156.26,0,160.51,0s9.57,5.06,9.69,8.64S168.68,18.21,167,19s-4.78.28-6.28-.24-48.46,37.42-48.46,37.42Z" transform="translate(0 0)"/><polygon class="cls-6" points="109.97 75.41 117.89 67.99 122.61 73.98 118.84 77.34 123.26 83.98 120.3 86.69 109.97 75.41"/><path class="cls-7" d="M117.89,68l30.4-29.12s6.13-5.47,9.19-5.48,6.91,3.65,7,6.23-1.09,6.92-2.34,7.51-3.45.2-4.53-.17-35,27-35,27Z" transform="translate(0 0)"/><polygon class="cls-6" points="120.94 87.49 127.75 81.12 131.81 86.27 128.57 89.15 132.38 94.86 129.83 97.19 120.94 87.49"/><path class="cls-7" d="M127.75,81.12l26.14-25s5.27-4.7,7.91-4.71,5.94,3.14,6,5.36-.94,5.95-2,6.46a6.16,6.16,0,0,1-3.89-.15c-.93-.32-30.09,23.23-30.09,23.23Z" transform="translate(0 0)"/><polygon class="cls-8" points="85.88 62.97 18.61 128.8 23.86 135.96 85.88 62.97"/><polygon class="cls-9" points="110.37 45.31 147.9 9.05 112.28 47.54 110.37 45.31"/><polygon class="cls-9" points="147.26 42.13 119.59 68.53 120.86 70.12 147.26 42.13"/><polygon class="cls-9" points="153.3 58.03 129.13 81.57 131.04 83.79 153.3 58.03"/><path class="cls-6" d="M160.3,9.77A2.31,2.31,0,1,1,158,7.46a2.31,2.31,0,0,1,2.31,2.31" transform="translate(0 0)"/><path class="cls-6" d="M157.33,40.45a1.66,1.66,0,1,1-1.67-1.66,1.66,1.66,0,0,1,1.67,1.66" transform="translate(0 0)"/><path class="cls-6" d="M161.67,57.43A1.43,1.43,0,1,1,160.24,56a1.43,1.43,0,0,1,1.43,1.43" transform="translate(0 0)"/></g></g></g></g></g></svg>